Coordinates
version=1
nRows=8
nColumns=36
inDegrees=yes

Units are S.I. units (second, meters, Newtons, ...)
If the header above contains a line with 'inDegrees', this indicates whether rotational values are in degrees (yes) or radians (no).

endheader
time	pelvis_tilt	pelvis_list	pelvis_rotation	pelvis_tx	pelvis_ty	pelvis_tz	hip_flexion_r	hip_adduction_r	hip_rotation_r	knee_angle_r	knee_angle_r_beta	ankle_angle_r	subtalar_angle_r	mtp_angle_r	hip_flexion_l	hip_adduction_l	hip_rotation_l	knee_angle_l	knee_angle_l_beta	ankle_angle_l	subtalar_angle_l	mtp_angle_l	lumbar_extension	lumbar_bending	lumbar_rotation	arm_flex_r	arm_add_r	arm_rot_r	elbow_flex_r	pro_sup_r	arm_flex_l	arm_add_l	arm_rot_l	elbow_flex_l	pro_sup_l
      0.00000000	     -9.23543283	     -1.09459643	     -0.01688659	     -0.93152222	      1.25332654	     -0.01934494	     17.87673998	      0.15008964	     -1.19436576	     16.50428053	      0.28805404	      3.59147484	    -21.92928373	     -5.66649939	     18.09367795	     -3.08971458	      2.47460513	     19.39321333	      0.33847543	     13.54459914	     -6.28419065	     -5.66649939	     -9.63061973	      0.96782556	     -0.83378361	      0.17272642	     -6.78829863	      8.00775872	     27.59841783	     79.22619357	     -1.34871361	     -5.72987160	      8.23009865	     27.72486520	     75.13114100
      0.00416670	    -12.94635971	     -1.10193567	      0.07629102	     -0.93223516	      1.24715726	     -0.02006588	     23.47327589	      0.29204943	     -0.72327070	     19.70546215	      0.34392520	      8.17686940	    -20.27482495	     -6.46656146	     23.70483162	     -2.14104793	      4.54694932	     22.29079488	      0.38904776	     15.23016483	     -6.07993909	     -6.46656146	     -4.67187774	      1.19892401	     -0.81205362	     -1.33620169	     -5.55036586	      2.24193952	     27.15802687	     80.79838445	     -2.21898029	     -4.27764399	      3.53988955	     26.78767921	     79.23649264
      0.00833330	    -14.05772821	     -0.58784402	     -0.10680973	     -0.93139893	      1.24560505	     -0.01898098	     24.37764556	     -0.14710554	     -1.07054219	     19.13952016	      0.33404764	      8.35159889	    -20.45374007	     -6.53700519	     24.83837773	     -1.70369290	      5.13192956	     22.29786632	      0.38917118	     15.11091342	     -7.43228106	     -6.53700519	     -2.80959840	      0.42292563	     -0.62385131	     -2.15628376	     -5.01849082	      0.99620848	     27.15581558	     79.59066247	     -2.87679048	     -4.42894321	      3.31606082	     26.83845824	     78.59498039
      0.01250000	    -14.25810892	     -0.56128378	     -0.18969333	     -0.93206199	      1.24669319	     -0.01846189	     24.44642293	     -0.14060171	     -1.28743039	     18.80247558	      0.32816511	      8.12834809	    -20.59968808	     -6.59819321	     24.95696630	     -1.62285111	      5.89879898	     22.14859111	      0.38656584	     14.93022913	     -8.44282745	     -6.59819321	     -2.32106107	      0.34228729	     -0.27437797	     -2.52341525	     -4.93830739	      0.39319298	     27.54642662	     78.99312089	     -3.16745448	     -4.67320872	      3.54742202	     27.06974519	     78.44164255
      0.01666670	    -14.39093189	     -0.53753294	     -0.06997090	     -0.93163660	      1.24527619	     -0.01835516	     24.53801744	     -0.07744874	     -1.15222531	     18.62510723	      0.32506944	      7.98025655	    -20.91420954	     -6.93722871	     25.14834779	     -1.48159630	      6.33546725	     22.17711179	      0.38706362	     14.66758249	     -9.95492359	     -6.93722871	     -2.20252058	      0.37492564	      0.38843479	     -3.49703882	     -4.68930329	     -2.50156775	     28.76874283	     83.60224697	     -2.90953381	     -4.84131801	      4.16042674	     27.32059475	     85.31301386
      0.02083330	    -14.48783166	     -0.61808766	      0.01864664	     -0.93159664	      1.24676847	     -0.01855947	     24.48212567	     -0.00754832	     -1.28304204	     18.21444122	      0.31790197	      7.48484162	    -21.12308770	     -7.00495023	     25.27660946	     -1.45778321	      6.78244260	     22.12991338	      0.38623985	     14.47911145	    -10.51177003	     -7.00495023	     -1.99518872	      0.57184674	      0.31055377	     -3.62919177	     -4.80536260	     -2.20308551	     29.00699434	     82.55071117	     -2.90574046	     -4.73456953	      4.35133804	     27.37600241	     84.17361715
      0.02500000	    -14.34958313	     -0.65223672	      0.07424245	     -0.93193585	      1.24802760	     -0.01855585	     24.25233020	      0.09450887	     -0.96809810	     17.88396062	      0.31213400	      6.56258004	    -22.03854912	     -7.07623519	     25.11098528	     -1.39957191	      7.09245090	     21.93352041	      0.38281215	     13.92197028	    -11.54853455	     -7.07623519	     -2.22726690	      0.68278737	      0.36718610	     -3.59572094	     -4.92965918	     -1.43849814	     29.11435845	     81.83363800	     -2.65200400	     -4.70834334	      4.87739150	     27.44742609	     83.33400473
      0.02916670	    -14.12227977	     -0.72202466	      0.22279882	     -0.93142932	      1.24912244	     -0.01840071	     23.80308020	      0.21065359	     -0.78295704	     17.46907577	      0.30489289	      5.77053178	    -22.53432578	     -7.11476542	     24.82583924	     -1.38281378	      7.43649950	     21.81808435	      0.38079741	     13.52496092	    -12.16643368	     -7.11476542	     -2.53846554	      0.79323942	      0.34527654	     -3.51128675	     -5.00440276	     -0.91423447	     29.05901210	     81.53272135	     -2.40377139	     -4.62678153	      5.05640107	     27.45386529	     82.94018966
